<svg width="20" height="20" viewBox="0 0 20 20" fill="none" xmlns="http://www.w3.org/2000/svg">
<path d="M20 10.2271C20 9.51804 19.9351 8.83624 19.8145 8.18164H10.2041V12.0498H15.6957C15.4592 13.2998 14.7403 14.3589 13.6596 15.068V17.5771H16.9574C18.8869 15.8362 20 13.2725 20 10.2271Z" fill="#4285F4"/>
<path d="M10.2042 19.9999C12.9593 19.9999 15.2691 19.1044 16.9574 17.5772L13.6596 15.0681C12.746 15.6681 11.5771 16.0226 10.2042 16.0226C7.54647 16.0226 5.29698 14.2635 4.49453 11.8999H1.08545V14.4908C2.76453 17.759 6.21535 19.9999 10.2042 19.9999Z" fill="#34A853"/>
<path d="M4.49439 11.9002C4.29031 11.3002 4.17439 10.6593 4.17439 10.0002C4.17439 9.34108 4.29031 8.70018 4.49439 8.10018V5.50928H1.08531C0.394285 6.85928 0 8.38658 0 10.0002C0 11.6138 0.394285 13.1411 1.08531 14.4911L4.49439 11.9002Z" fill="#FBBC04"/>
<path d="M10.2042 3.9773C11.7023 3.9773 13.0474 4.4818 14.1049 5.4727L17.0317 2.6045C15.2645 0.9909 12.9546 0 10.2042 0C6.21535 0 2.76453 2.2409 1.08545 5.5091L4.49453 8.1C5.29698 5.7364 7.54647 3.9773 10.2042 3.9773Z" fill="#E94235"/>
</svg>
